<svg width="41" height="40" viewBox="0 0 41 40" fill="none" xmlns="http://www.w3.org/2000/svg">
<path d="M19.25 37.5L14.25 37.5C13.9185 37.5 13.6005 37.3683 13.3661 37.1339C13.1317 36.8995 13 36.5815 13 36.25C12.9998 36.1676 13.0082 36.0854 13.025 36.0047L15.3437 24.375L11.6359 24.375L8.87812 27.1344C8.64504 27.3672 8.32945 27.4986 8 27.5L4.25 27.5C4.04513 27.5004 3.84332 27.4503 3.66231 27.3544C3.48131 27.2584 3.32667 27.1194 3.212 26.9497C3.09733 26.7799 3.02614 26.5845 3.0047 26.3808C2.98326 26.1771 3.01224 25.9712 3.08906 25.7812L5.40312 20L3.08907 14.2187C3.01224 14.0288 2.98326 13.8229 3.0047 13.6192C3.02614 13.4155 3.09733 13.2201 3.212 13.0503C3.32667 12.8806 3.48131 12.7416 3.66231 12.6456C3.84332 12.5497 4.04513 12.4996 4.25 12.5L8 12.5C8.1642 12.4999 8.32682 12.5321 8.47856 12.5948C8.63031 12.6576 8.7682 12.7496 8.88438 12.8656L11.6422 15.625L15.3437 15.625L13.025 3.99531C13.0082 3.91463 12.9998 3.83242 13 3.75C13 3.41848 13.1317 3.10054 13.3661 2.86612C13.6005 2.6317 13.9185 2.5 14.25 2.5L19.25 2.5C19.4822 2.49983 19.7099 2.56436 19.9075 2.68635C20.1051 2.80833 20.2648 2.98295 20.3688 3.19062L26.5844 15.625L33.625 15.625C34.7853 15.625 35.8981 16.0859 36.7186 16.9064C37.5391 17.7269 38 18.8397 38 20C38 21.1603 37.5391 22.2731 36.7186 23.0936C35.8981 23.9141 34.7853 24.375 33.625 24.375L26.5844 24.375L20.3688 36.8094C20.2648 37.017 20.1051 37.1917 19.9075 37.3137C19.7099 37.4356 19.4822 37.5002 19.25 37.5Z" fill="#0E275D"/>
</svg>
