<svg width="40" height="40" viewBox="0 0 40 40" fill="none" xmlns="http://www.w3.org/2000/svg">
<g clip-path="url(#clip0_277_5907)">
<path d="M33.75 6.25H6.25C5.58696 6.25 4.95107 6.51339 4.48223 6.98223C4.01339 7.45107 3.75 8.08696 3.75 8.75V32.5C3.75011 32.713 3.80468 32.9225 3.90852 33.1086C4.01235 33.2946 4.16201 33.451 4.34329 33.5629C4.52457 33.6749 4.73144 33.7386 4.94428 33.7481C5.15712 33.7576 5.36885 33.7125 5.55938 33.6172L10 31.3969L14.4406 33.6172C14.6143 33.7041 14.8058 33.7493 15 33.7493C15.1942 33.7493 15.3857 33.7041 15.5594 33.6172L20 31.3969L24.4406 33.6172C24.6143 33.7041 24.8058 33.7493 25 33.7493C25.1942 33.7493 25.3857 33.7041 25.5594 33.6172L30 31.3969L34.4406 33.6172C34.6312 33.7125 34.8429 33.7576 35.0557 33.7481C35.2686 33.7386 35.4754 33.6749 35.6567 33.5629C35.838 33.451 35.9876 33.2946 36.0915 33.1086C36.1953 32.9225 36.2499 32.713 36.25 32.5V8.75C36.25 8.08696 35.9866 7.45107 35.5178 6.98223C35.0489 6.51339 34.413 6.25 33.75 6.25ZM27.5 22.5H12.5C12.1685 22.5 11.8505 22.3683 11.6161 22.1339C11.3817 21.8995 11.25 21.5815 11.25 21.25C11.25 20.9185 11.3817 20.6005 11.6161 20.3661C11.8505 20.1317 12.1685 20 12.5 20H27.5C27.8315 20 28.1495 20.1317 28.3839 20.3661C28.6183 20.6005 28.75 20.9185 28.75 21.25C28.75 21.5815 28.6183 21.8995 28.3839 22.1339C28.1495 22.3683 27.8315 22.5 27.5 22.5ZM27.5 17.5H12.5C12.1685 17.5 11.8505 17.3683 11.6161 17.1339C11.3817 16.8995 11.25 16.5815 11.25 16.25C11.25 15.9185 11.3817 15.6005 11.6161 15.3661C11.8505 15.1317 12.1685 15 12.5 15H27.5C27.8315 15 28.1495 15.1317 28.3839 15.3661C28.6183 15.6005 28.75 15.9185 28.75 16.25C28.75 16.5815 28.6183 16.8995 28.3839 17.1339C28.1495 17.3683 27.8315 17.5 27.5 17.5Z" fill="#0059FF"/>
</g>
<defs>
<clipPath id="clip0_277_5907">
<rect width="40" height="40" fill="white"/>
</clipPath>
</defs>
</svg>
