<svg width="20" height="20" viewBox="0 0 20 20" fill="none" xmlns="http://www.w3.org/2000/svg">
<g clip-path="url(#clip0_1700_23118)">
<path d="M16.875 3.125H3.125C2.79348 3.125 2.47554 3.2567 2.24112 3.49112C2.0067 3.72554 1.875 4.04348 1.875 4.375V16.25C1.87506 16.3565 1.90234 16.4613 1.95426 16.5543C2.00618 16.6473 2.08101 16.7255 2.17165 16.7815C2.26228 16.8374 2.36572 16.8693 2.47214 16.874C2.57856 16.8788 2.68442 16.8563 2.77969 16.8086L5 15.6984L7.22031 16.8086C7.30714 16.852 7.4029 16.8747 7.5 16.8747C7.5971 16.8747 7.69286 16.852 7.77969 16.8086L10 15.6984L12.2203 16.8086C12.3071 16.852 12.4029 16.8747 12.5 16.8747C12.5971 16.8747 12.6929 16.852 12.7797 16.8086L15 15.6984L17.2203 16.8086C17.3156 16.8563 17.4214 16.8788 17.5279 16.874C17.6343 16.8693 17.7377 16.8374 17.8284 16.7815C17.919 16.7255 17.9938 16.6473 18.0457 16.5543C18.0977 16.4613 18.1249 16.3565 18.125 16.25V4.375C18.125 4.04348 17.9933 3.72554 17.7589 3.49112C17.5245 3.2567 17.2065 3.125 16.875 3.125ZM13.75 11.25H6.25C6.08424 11.25 5.92527 11.1842 5.80806 11.0669C5.69085 10.9497 5.625 10.7908 5.625 10.625C5.625 10.4592 5.69085 10.3003 5.80806 10.1831C5.92527 10.0658 6.08424 10 6.25 10H13.75C13.9158 10 14.0747 10.0658 14.1919 10.1831C14.3092 10.3003 14.375 10.4592 14.375 10.625C14.375 10.7908 14.3092 10.9497 14.1919 11.0669C14.0747 11.1842 13.9158 11.25 13.75 11.25ZM13.75 8.75H6.25C6.08424 8.75 5.92527 8.68415 5.80806 8.56694C5.69085 8.44973 5.625 8.29076 5.625 8.125C5.625 7.95924 5.69085 7.80027 5.80806 7.68306C5.92527 7.56585 6.08424 7.5 6.25 7.5H13.75C13.9158 7.5 14.0747 7.56585 14.1919 7.68306C14.3092 7.80027 14.375 7.95924 14.375 8.125C14.375 8.29076 14.3092 8.44973 14.1919 8.56694C14.0747 8.68415 13.9158 8.75 13.75 8.75Z" fill="#56688E"/>
</g>
<defs>
<clipPath id="clip0_1700_23118">
<rect width="20" height="20" fill="white"/>
</clipPath>
</defs>
</svg>
