<svg width="20" height="20" viewBox="0 0 20 20" fill="none" xmlns="http://www.w3.org/2000/svg">
<path d="M9.6875 13.6716C9.78195 13.7256 9.88886 13.754 9.99766 13.754C10.1065 13.754 10.2134 13.7256 10.3078 13.6716C10.4992 13.5615 14.9953 10.9373 14.9953 6.25368C14.956 4.95469 14.4125 3.72203 13.48 2.8169C12.5474 1.91177 11.2991 1.40529 9.99955 1.40479C8.69997 1.40428 7.45126 1.90978 6.518 2.81418C5.58475 3.71858 5.04029 4.95081 5 6.24977C5 10.9373 9.49844 13.5576 9.6875 13.6716ZM10 4.37477C10.3708 4.37477 10.7334 4.48474 11.0417 4.69076C11.35 4.89679 11.5904 5.18963 11.7323 5.53224C11.8742 5.87485 11.9113 6.25185 11.839 6.61556C11.7666 6.97928 11.588 7.31337 11.3258 7.57559C11.0636 7.83782 10.7295 8.01639 10.3658 8.08874C10.0021 8.16109 9.62508 8.12396 9.28247 7.98204C8.93986 7.84013 8.64702 7.59981 8.44099 7.29146C8.23497 6.98312 8.125 6.62061 8.125 6.24977C8.125 5.75249 8.32254 5.27557 8.67417 4.92394C9.02581 4.57231 9.50272 4.37477 10 4.37477ZM18.75 14.3748C18.75 16.8107 14.2414 18.1248 10 18.1248C5.75859 18.1248 1.25 16.8107 1.25 14.3748C1.25 13.2349 2.28281 12.2255 4.15859 11.5334C4.31242 11.4825 4.47997 11.4934 4.62592 11.5638C4.77187 11.6341 4.88481 11.7583 4.94094 11.9103C4.99707 12.0622 4.99199 12.2301 4.92679 12.3784C4.86158 12.5267 4.74134 12.6439 4.59141 12.7052C3.30156 13.1826 2.5 13.8216 2.5 14.3748C2.5 15.4185 5.35313 16.8748 10 16.8748C14.6469 16.8748 17.5 15.4185 17.5 14.3748C17.5 13.8216 16.6984 13.1826 15.4086 12.706C15.2587 12.6446 15.1384 12.5275 15.0732 12.3792C15.008 12.2309 15.0029 12.063 15.0591 11.9111C15.1152 11.7591 15.2281 11.6349 15.3741 11.5645C15.52 11.4942 15.6876 11.4833 15.8414 11.5341C17.7172 12.2255 18.75 13.2349 18.75 14.3748Z" fill="#56688E"/>
</svg>
