<svg width="24" height="24" viewBox="0 0 24 24" fill="none" xmlns="http://www.w3.org/2000/svg">
<path d="M20.0312 9.53063L12.5312 17.0306C12.4616 17.1004 12.3788 17.1557 12.2878 17.1934C12.1967 17.2312 12.0992 17.2506 12.0006 17.2506C11.902 17.2506 11.8044 17.2312 11.7134 17.1934C11.6223 17.1557 11.5396 17.1004 11.47 17.0306L3.96997 9.53063C3.86496 9.42573 3.79343 9.29204 3.76444 9.14648C3.73546 9.00092 3.75031 8.85002 3.80712 8.71291C3.86394 8.57579 3.96016 8.45861 4.0836 8.37621C4.20705 8.29381 4.35217 8.24988 4.50059 8.25H19.5006C19.649 8.24988 19.7941 8.29381 19.9176 8.37621C20.041 8.45861 20.1372 8.57579 20.1941 8.71291C20.2509 8.85002 20.2657 9.00092 20.2367 9.14648C20.2078 9.29204 20.1362 9.42573 20.0312 9.53063Z" fill="#56688E"/>
</svg>
