<svg width="20" height="20" viewBox="0 0 20 20" fill="none" xmlns="http://www.w3.org/2000/svg">
<rect x="0.5" y="0.5" width="19" height="19" rx="9.5" stroke="#56688E"/>
<path d="M11.0619 9.99984L14.0307 7.03109C14.1716 6.89044 14.2508 6.69958 14.251 6.5005C14.2512 6.30142 14.1723 6.11042 14.0316 5.96952C13.891 5.82863 13.7001 5.74937 13.501 5.7492C13.3019 5.74902 13.1109 5.82794 12.9701 5.96859L10.0013 8.93734L7.03255 5.96859C6.89166 5.82769 6.70056 5.74854 6.5013 5.74854C6.30204 5.74854 6.11095 5.82769 5.97005 5.96859C5.82915 6.10948 5.75 6.30058 5.75 6.49984C5.75 6.69909 5.82915 6.89019 5.97005 7.03109L8.9388 9.99984L5.97005 12.9686C5.82915 13.1095 5.75 13.3006 5.75 13.4998C5.75 13.6991 5.82915 13.8902 5.97005 14.0311C6.11095 14.172 6.30204 14.2511 6.5013 14.2511C6.70056 14.2511 6.89166 14.172 7.03255 14.0311L10.0013 11.0623L12.9701 14.0311C13.1109 14.172 13.302 14.2511 13.5013 14.2511C13.7006 14.2511 13.8917 14.172 14.0326 14.0311C14.1734 13.8902 14.2526 13.6991 14.2526 13.4998C14.2526 13.3006 14.1734 13.1095 14.0326 12.9686L11.0619 9.99984Z" fill="#56688E"/>
</svg>
