<svg width="24" height="24" viewBox="0 0 24 24" fill="none" xmlns="http://www.w3.org/2000/svg">
<path d="M9.06374 5.42513C9.01945 5.37661 8.98868 5.31731 8.97452 5.25315C8.96036 5.189 8.9633 5.12226 8.98305 5.0596C9.00279 4.99694 9.03865 4.94057 9.08704 4.89613C9.13542 4.85169 9.19463 4.82074 9.25874 4.80638C10.158 4.60089 11.0776 4.49805 12 4.49982C15.27 4.49982 18.2409 5.74294 20.5931 8.09513C22.3584 9.86044 23.1525 11.622 23.1853 11.6961C23.2279 11.792 23.25 11.8958 23.25 12.0008C23.25 12.1057 23.2279 12.2095 23.1853 12.3054C23.1525 12.3795 22.3584 14.1401 20.5931 15.9054C20.3256 16.1717 20.0509 16.4239 19.7691 16.662C19.6949 16.725 19.5992 16.7567 19.5021 16.7504C19.405 16.7441 19.3141 16.7003 19.2487 16.6283L9.06374 5.42513ZM20.055 19.7454C20.1226 19.8181 20.1751 19.9034 20.2095 19.9965C20.2439 20.0896 20.2595 20.1886 20.2554 20.2878C20.2512 20.3869 20.2275 20.4843 20.1854 20.5742C20.1434 20.6641 20.0839 20.7448 20.0105 20.8115C19.937 20.8783 19.851 20.9298 19.7575 20.9631C19.664 20.9963 19.5649 21.0107 19.4657 21.0054C19.3666 21.0001 19.2696 20.9751 19.1802 20.932C19.0908 20.8889 19.0109 20.8284 18.945 20.7542L16.875 18.4808C15.3398 19.1597 13.6786 19.507 12 19.4998C8.72999 19.4998 5.75905 18.2567 3.40687 15.9054C1.64155 14.1401 0.843741 12.3795 0.814679 12.3054C0.772035 12.2095 0.75 12.1057 0.75 12.0008C0.75 11.8958 0.772035 11.792 0.814679 11.6961C0.843741 11.6248 1.64155 9.86044 3.40687 8.09513C4.11214 7.38661 4.89887 6.76415 5.75062 6.24076L3.94499 4.25419C3.87737 4.18155 3.82483 4.09621 3.79043 4.00311C3.75603 3.91002 3.74045 3.81102 3.7446 3.71186C3.74874 3.61269 3.77252 3.51534 3.81457 3.42544C3.85661 3.33554 3.91608 3.25487 3.98953 3.18812C4.06298 3.12137 4.14895 3.06987 4.24245 3.03659C4.33595 3.00331 4.43513 2.98892 4.53423 2.99425C4.63334 2.99958 4.7304 3.02453 4.81979 3.06765C4.90918 3.11077 4.98913 3.1712 5.05499 3.24544L20.055 19.7454ZM13.9153 15.222L8.97562 9.78451C8.46662 10.4819 8.21386 11.3336 8.26002 12.1958C8.30618 13.0579 8.64844 13.8777 9.22899 14.5168C9.80955 15.1559 10.5928 15.575 11.4466 15.7035C12.3004 15.832 13.1724 15.6619 13.9153 15.222Z" fill="#56688E"/>
</svg>
