<svg width="22" height="22" viewBox="0 0 22 22" fill="none" xmlns="http://www.w3.org/2000/svg">
<path d="M15.374 6.62889C15.1245 5.28556 14.5129 4.03588 13.6051 3.01479C12.6973 1.9937 11.5278 1.23999 10.2229 0.835037C8.918 0.430087 7.52727 0.389284 6.20088 0.717034C4.87448 1.04478 3.66281 1.72863 2.6967 2.69475C1.73059 3.66086 1.04674 4.87253 0.718987 6.19892C0.391237 7.52532 0.43204 8.91605 0.83699 10.2209C1.24194 11.5258 1.99565 12.6953 3.01674 13.6031C4.03784 14.511 5.28751 15.1226 6.63084 15.372C6.88027 16.7153 7.4919 17.965 8.39971 18.9861C9.30752 20.0072 10.477 20.7609 11.7819 21.1659C13.0868 21.5708 14.4775 21.6116 15.8039 21.2839C17.1303 20.9561 18.342 20.2723 19.3081 19.3062C20.2742 18.34 20.9581 17.1284 21.2858 15.802C21.6136 14.4756 21.5728 13.0849 21.1678 11.78C20.7629 10.4751 20.0092 9.30557 18.9881 8.39776C17.967 7.48995 16.7173 6.87831 15.374 6.62889ZM2.00241 8.00045C1.99953 6.53803 2.53086 5.1249 3.49655 4.02665C4.46224 2.92841 5.79578 2.22067 7.24656 2.03644C8.69734 1.85221 10.1655 2.20419 11.375 3.02622C12.5845 3.84825 13.4522 5.08372 13.8149 6.50045C11.8919 6.55099 10.0616 7.33777 8.70182 8.69846C7.34201 10.0591 6.5564 11.8899 6.50709 13.813C5.21866 13.4796 4.07732 12.728 3.26207 11.676C2.44682 10.6241 2.00377 9.33132 2.00241 8.00045ZM14.0024 20.0005C12.6722 19.9994 11.3799 19.557 10.328 18.7426C9.27616 17.9283 8.52418 16.788 8.18991 15.5005C10.1137 15.4511 11.9452 14.6648 13.306 13.304C14.6668 11.9432 15.4531 10.1118 15.5024 8.18795C16.9191 8.55068 18.1546 9.41835 18.9766 10.6279C19.7987 11.8374 20.1506 13.3055 19.9664 14.7563C19.7822 16.2071 19.0744 17.5406 17.9762 18.5063C16.878 19.472 15.4648 20.0033 14.0024 20.0005Z" fill="#0059FF"/>
</svg>
