<svg width="22" height="18" viewBox="0 0 22 18" fill="none" xmlns="http://www.w3.org/2000/svg">
<path d="M9.50059 1.5V16.5C9.50059 16.6989 9.42157 16.8897 9.28092 17.0303C9.14027 17.171 8.9495 17.25 8.75059 17.25C8.55168 17.25 8.36091 17.171 8.22026 17.0303C8.07961 16.8897 8.00059 16.6989 8.00059 16.5V9.75H5.00059V12C5.00071 12.1484 4.95678 12.2935 4.87438 12.417C4.79198 12.5404 4.6748 12.6367 4.53768 12.6935C4.40057 12.7503 4.24967 12.7651 4.10411 12.7361C3.95855 12.7072 3.82486 12.6356 3.71996 12.5306L0.719965 9.53063C0.650233 9.46097 0.594913 9.37825 0.55717 9.2872C0.519427 9.19616 0.5 9.09856 0.5 9C0.5 8.90144 0.519427 8.80384 0.55717 8.71279C0.594913 8.62175 0.650233 8.53903 0.719965 8.46937L3.71996 5.46937C3.82486 5.36437 3.95855 5.29284 4.10411 5.26385C4.24967 5.23487 4.40057 5.24972 4.53768 5.30653C4.6748 5.36335 4.79198 5.45957 4.87438 5.58301C4.95678 5.70646 5.00071 5.85158 5.00059 6V8.25H8.00059V1.5C8.00059 1.30109 8.07961 1.11032 8.22026 0.96967C8.36091 0.829018 8.55168 0.75 8.75059 0.75C8.9495 0.75 9.14027 0.829018 9.28092 0.96967C9.42157 1.11032 9.50059 1.30109 9.50059 1.5ZM21.2812 8.46937L18.2812 5.46937C18.1763 5.36437 18.0426 5.29284 17.8971 5.26385C17.7515 5.23487 17.6006 5.24972 17.4635 5.30653C17.3264 5.36335 17.2092 5.45957 17.1268 5.58301C17.0444 5.70646 17.0005 5.85158 17.0006 6V8.25H14.0006V1.5C14.0006 1.30109 13.9216 1.11032 13.7809 0.96967C13.6403 0.829018 13.4495 0.75 13.2506 0.75C13.0517 0.75 12.8609 0.829018 12.7203 0.96967C12.5796 1.11032 12.5006 1.30109 12.5006 1.5V16.5C12.5006 16.6989 12.5796 16.8897 12.7203 17.0303C12.8609 17.171 13.0517 17.25 13.2506 17.25C13.4495 17.25 13.6403 17.171 13.7809 17.0303C13.9216 16.8897 14.0006 16.6989 14.0006 16.5V9.75H17.0006V12C17.0005 12.1484 17.0444 12.2935 17.1268 12.417C17.2092 12.5404 17.3264 12.6367 17.4635 12.6935C17.6006 12.7503 17.7515 12.7651 17.8971 12.7361C18.0426 12.7072 18.1763 12.6356 18.2812 12.5306L21.2812 9.53063C21.3509 9.46097 21.4063 9.37825 21.444 9.2872C21.4818 9.19616 21.5012 9.09856 21.5012 9C21.5012 8.90144 21.4818 8.80384 21.444 8.71279C21.4063 8.62175 21.3509 8.53903 21.2812 8.46937Z" fill="#0059FF"/>
</svg>
