<svg width="24" height="24" viewBox="0 0 24 24" fill="none" xmlns="http://www.w3.org/2000/svg">
<rect x="0.5" y="0.5" width="23" height="23" rx="11.5" stroke="#56688E"/>
<path d="M13.0619 11.9998L16.0307 9.03109C16.1716 8.89044 16.2508 8.69958 16.251 8.5005C16.2512 8.30142 16.1723 8.11042 16.0316 7.96952C15.891 7.82863 15.7001 7.74937 15.501 7.7492C15.3019 7.74902 15.1109 7.82794 14.9701 7.96859L12.0013 10.9373L9.03255 7.96859C8.89166 7.82769 8.70056 7.74854 8.5013 7.74854C8.30204 7.74854 8.11095 7.82769 7.97005 7.96859C7.82915 8.10948 7.75 8.30058 7.75 8.49984C7.75 8.69909 7.82915 8.89019 7.97005 9.03109L10.9388 11.9998L7.97005 14.9686C7.82915 15.1095 7.75 15.3006 7.75 15.4998C7.75 15.6991 7.82915 15.8902 7.97005 16.0311C8.11095 16.172 8.30204 16.2511 8.5013 16.2511C8.70056 16.2511 8.89166 16.172 9.03255 16.0311L12.0013 13.0623L14.9701 16.0311C15.1109 16.172 15.302 16.2511 15.5013 16.2511C15.7006 16.2511 15.8917 16.172 16.0326 16.0311C16.1734 15.8902 16.2526 15.6991 16.2526 15.4998C16.2526 15.3006 16.1734 15.1095 16.0326 14.9686L13.0619 11.9998Z" fill="#56688E"/>
</svg>
