<svg width="32" height="32" viewBox="0 0 32 32" fill="none" xmlns="http://www.w3.org/2000/svg">
<g clip-path="url(#clip0_358_8992)">
<path d="M7.52201 16.1901C7.49759 16.265 7.45581 16.3331 7.40006 16.3888C7.34431 16.4445 7.27619 16.4863 7.20124 16.5107C7.12629 16.535 7.04664 16.5414 6.96878 16.5291C6.89093 16.5168 6.81708 16.4863 6.75326 16.4401L2.83201 13.6251C2.48389 13.379 2.22487 13.0268 2.09371 12.6212C1.96256 12.2156 1.96635 11.7784 2.10451 11.3751C2.24418 10.9705 2.50748 10.6201 2.85718 10.3734C3.20688 10.1266 3.62529 9.99604 4.05326 10.0001H8.84201C8.92103 9.99994 8.99896 10.0185 9.06941 10.0543C9.13986 10.0901 9.20082 10.1421 9.24729 10.206C9.29376 10.27 9.32442 10.344 9.33676 10.422C9.3491 10.5001 9.34276 10.58 9.31826 10.6551L7.52201 16.1901ZM6.64701 25.3751C6.51182 25.7763 6.50958 26.2104 6.64063 26.6131C6.77168 27.0157 7.02904 27.3653 7.37451 27.6101C7.71374 27.862 8.12507 27.9981 8.54763 27.9981C8.97019 27.9981 9.38153 27.862 9.72076 27.6101L13.727 24.7276C13.7915 24.6813 13.8441 24.6203 13.8804 24.5497C13.9166 24.479 13.9355 24.4007 13.9355 24.3213C13.9355 24.2419 13.9166 24.1637 13.8804 24.093C13.8441 24.0224 13.7915 23.9614 13.727 23.9151L8.92201 20.4651C8.85821 20.4191 8.78446 20.3888 8.70676 20.3767C8.62905 20.3646 8.54959 20.3709 8.47481 20.3953C8.40003 20.4197 8.33206 20.4613 8.2764 20.5169C8.22075 20.5724 8.17899 20.6403 8.15451 20.7151L6.64701 25.3751ZM17.9033 2.40758C17.7787 2.00042 17.5268 1.64392 17.1847 1.39041C16.8426 1.1369 16.4282 0.999725 16.0024 0.999026C15.5766 0.998327 15.1618 1.13414 14.8189 1.38652C14.476 1.63891 14.2229 1.99458 14.097 2.40133L12.4995 7.34508C12.4752 7.41971 12.4687 7.49902 12.4808 7.5766C12.4928 7.65417 12.5229 7.72783 12.5686 7.79161C12.6144 7.85539 12.6745 7.90749 12.7442 7.94371C12.8138 7.97993 12.891 7.99924 12.9695 8.00008H19.0295C19.1084 8.00016 19.1862 7.98157 19.2565 7.94584C19.3268 7.91011 19.3877 7.85824 19.4341 7.79449C19.4806 7.73073 19.5113 7.6569 19.5237 7.57901C19.5362 7.50112 19.53 7.42139 19.5058 7.34633L17.9033 2.40758ZM19.9995 10.0001H11.9995C11.8939 10.0002 11.7911 10.0338 11.7058 10.096C11.6204 10.1582 11.557 10.2459 11.5245 10.3463L9.12451 17.7213C9.09187 17.8221 9.09208 17.9306 9.1251 18.0313C9.15812 18.1319 9.22226 18.2195 9.30826 18.2813L15.7045 22.8838C15.7897 22.9453 15.892 22.9783 15.997 22.9783C16.102 22.9783 16.2043 22.9453 16.2895 22.8838L22.6858 18.2813C22.7718 18.2195 22.8359 18.1319 22.8689 18.0313C22.9019 17.9306 22.9021 17.8221 22.8695 17.7213L20.4758 10.3463C20.4432 10.2457 20.3796 10.1579 20.294 10.0957C20.2084 10.0334 20.1053 9.99998 19.9995 10.0001ZM29.8908 11.3751C29.7511 10.9705 29.4878 10.6201 29.1381 10.3734C28.7884 10.1266 28.37 9.99604 27.942 10.0001H23.157C23.078 9.99994 23.0001 10.0185 22.9296 10.0543C22.8592 10.0901 22.7982 10.1421 22.7517 10.206C22.7053 10.27 22.6746 10.344 22.6623 10.422C22.6499 10.5001 22.6563 10.58 22.6808 10.6551L24.477 16.1913C24.5015 16.2661 24.5432 16.334 24.5989 16.3895C24.6546 16.4451 24.7225 16.4868 24.7973 16.5111C24.8721 16.5355 24.9516 16.5418 25.0293 16.5297C25.107 16.5176 25.1807 16.4873 25.2445 16.4413L29.1708 13.6163C29.5169 13.3707 29.7743 13.0198 29.9047 12.6159C30.0352 12.212 30.0316 11.7768 29.8945 11.3751H29.8908ZM23.072 20.4688L18.272 23.9226C18.2075 23.9689 18.1549 24.0299 18.1187 24.1005C18.0824 24.1712 18.0635 24.2494 18.0635 24.3288C18.0635 24.4082 18.0824 24.4865 18.1187 24.5572C18.1549 24.6278 18.2075 24.6888 18.272 24.7351L22.272 27.6101C22.6135 27.8606 23.0257 27.9963 23.4493 27.9975C23.8728 27.9987 24.2858 27.8655 24.6288 27.6169C24.9717 27.3684 25.2269 27.0174 25.3576 26.6145C25.4882 26.2116 25.4876 25.7776 25.3558 25.3751L23.8445 20.7163C23.8202 20.6413 23.7786 20.5731 23.7229 20.5172C23.6672 20.4614 23.5991 20.4195 23.5241 20.395C23.4491 20.3705 23.3694 20.364 23.2915 20.3762C23.2136 20.3884 23.1397 20.4189 23.0758 20.4651L23.072 20.4688Z" fill="#56688E"/>
</g>
<defs>
<clipPath id="clip0_358_8992">
<rect width="32" height="32" fill="white"/>
</clipPath>
</defs>
</svg>
