<svg width="19" height="18" viewBox="0 0 19 18" fill="none" xmlns="http://www.w3.org/2000/svg">
<path d="M18.5 9C18.5 9.19891 18.421 9.38968 18.2803 9.53033C18.1397 9.67098 17.9489 9.75 17.75 9.75H10.25V17.25C10.25 17.4489 10.171 17.6397 10.0303 17.7803C9.88968 17.921 9.69891 18 9.5 18C9.30109 18 9.11032 17.921 8.96967 17.7803C8.82902 17.6397 8.75 17.4489 8.75 17.25V9.75H1.25C1.05109 9.75 0.860322 9.67098 0.71967 9.53033C0.579018 9.38968 0.5 9.19891 0.5 9C0.5 8.80109 0.579018 8.61032 0.71967 8.46967C0.860322 8.32902 1.05109 8.25 1.25 8.25H8.75V0.75C8.75 0.551088 8.82902 0.360322 8.96967 0.21967C9.11032 0.0790178 9.30109 0 9.5 0C9.69891 0 9.88968 0.0790178 10.0303 0.21967C10.171 0.360322 10.25 0.551088 10.25 0.75V8.25H17.75C17.9489 8.25 18.1397 8.32902 18.2803 8.46967C18.421 8.61032 18.5 8.80109 18.5 9Z" fill="white"/>
</svg>
