<svg width="40" height="40" viewBox="0 0 40 40" fill="none" xmlns="http://www.w3.org/2000/svg">
<g clip-path="url(#clip0_277_6002)">
<path d="M15 16.25C14.7528 16.25 14.5111 16.1767 14.3055 16.0393C14.1 15.902 13.9398 15.7068 13.8451 15.4784C13.7505 15.2499 13.7258 14.9986 13.774 14.7561C13.8222 14.5137 13.9413 14.2909 14.1161 14.1161C14.2909 13.9413 14.5137 13.8222 14.7561 13.774C14.9986 13.7258 15.2499 13.7505 15.4784 13.8451C15.7068 13.9398 15.902 14.1 16.0393 14.3055C16.1767 14.5111 16.25 14.7528 16.25 15C16.25 15.3315 16.1183 15.6495 15.8839 15.8839C15.6495 16.1183 15.3315 16.25 15 16.25ZM25 23.75C24.7528 23.75 24.5111 23.8233 24.3055 23.9607C24.1 24.098 23.9398 24.2932 23.8451 24.5216C23.7505 24.7501 23.7258 25.0014 23.774 25.2439C23.8223 25.4863 23.9413 25.7091 24.1161 25.8839C24.2909 26.0587 24.5137 26.1777 24.7561 26.226C24.9986 26.2742 25.2499 26.2495 25.4784 26.1549C25.7068 26.0602 25.902 25.9 26.0393 25.6945C26.1767 25.4889 26.25 25.2472 26.25 25C26.25 24.6685 26.1183 24.3505 25.8839 24.1161C25.6495 23.8817 25.3315 23.75 25 23.75ZM37.5 20C37.5 21.6313 36.3266 22.8547 35.2906 23.9344C34.7016 24.55 34.0922 25.1844 33.8625 25.7422C33.65 26.2531 33.6375 27.1 33.625 27.9203C33.6016 29.4453 33.5766 31.1734 32.375 32.375C31.1734 33.5766 29.4453 33.6016 27.9203 33.625C27.1 33.6375 26.2531 33.65 25.7422 33.8625C25.1844 34.0922 24.55 34.7016 23.9344 35.2906C22.8547 36.3266 21.6313 37.5 20 37.5C18.3687 37.5 17.1453 36.3266 16.0656 35.2906C15.45 34.7016 14.8156 34.0922 14.2578 33.8625C13.7469 33.65 12.9 33.6375 12.0797 33.625C10.5547 33.6016 8.82656 33.5766 7.625 32.375C6.42344 31.1734 6.39844 29.4453 6.375 27.9203C6.3625 27.1 6.35 26.2531 6.1375 25.7422C5.90781 25.1844 5.29844 24.55 4.70937 23.9344C3.67344 22.8547 2.5 21.6313 2.5 20C2.5 18.3687 3.67344 17.1453 4.70937 16.0656C5.29844 15.45 5.90781 14.8156 6.1375 14.2578C6.35 13.7469 6.3625 12.9 6.375 12.0797C6.39844 10.5547 6.42344 8.82656 7.625 7.625C8.82656 6.42344 10.5547 6.39844 12.0797 6.375C12.9 6.3625 13.7469 6.35 14.2578 6.1375C14.8156 5.90781 15.45 5.29844 16.0656 4.70937C17.1453 3.67344 18.3687 2.5 20 2.5C21.6313 2.5 22.8547 3.67344 23.9344 4.70937C24.55 5.29844 25.1844 5.90781 25.7422 6.1375C26.2531 6.35 27.1 6.3625 27.9203 6.375C29.4453 6.39844 31.1734 6.42344 32.375 7.625C33.5766 8.82656 33.6016 10.5547 33.625 12.0797C33.6375 12.9 33.65 13.7469 33.8625 14.2578C34.0922 14.8156 34.7016 15.45 35.2906 16.0656C36.3266 17.1453 37.5 18.3687 37.5 20ZM15 18.75C15.7417 18.75 16.4667 18.5301 17.0834 18.118C17.7001 17.706 18.1807 17.1203 18.4645 16.4351C18.7484 15.7498 18.8226 14.9958 18.6779 14.2684C18.5333 13.541 18.1761 12.8728 17.6517 12.3483C17.1272 11.8239 16.459 11.4667 15.7316 11.3221C15.0042 11.1774 14.2502 11.2516 13.5649 11.5355C12.8797 11.8193 12.294 12.2999 11.882 12.9166C11.4699 13.5333 11.25 14.2583 11.25 15C11.25 15.9946 11.6451 16.9484 12.3483 17.6517C13.0516 18.3549 14.0054 18.75 15 18.75ZM27.1344 14.6344C27.2505 14.5182 27.3426 14.3804 27.4055 14.2286C27.4683 14.0769 27.5007 13.9142 27.5007 13.75C27.5007 13.5858 27.4683 13.4231 27.4055 13.2714C27.3426 13.1196 27.2505 12.9818 27.1344 12.8656C27.0182 12.7495 26.8804 12.6574 26.7286 12.5945C26.5769 12.5317 26.4142 12.4993 26.25 12.4993C26.0858 12.4993 25.9231 12.5317 25.7714 12.5945C25.6196 12.6574 25.4818 12.7495 25.3656 12.8656L12.8656 25.3656C12.7495 25.4818 12.6574 25.6196 12.5945 25.7714C12.5317 25.9231 12.4993 26.0858 12.4993 26.25C12.4993 26.4142 12.5317 26.5769 12.5945 26.7286C12.6574 26.8804 12.7495 27.0182 12.8656 27.1344C13.1002 27.3689 13.4183 27.5007 13.75 27.5007C13.9142 27.5007 14.0769 27.4683 14.2286 27.4055C14.3804 27.3426 14.5182 27.2505 14.6344 27.1344L27.1344 14.6344ZM28.75 25C28.75 24.2583 28.5301 23.5333 28.118 22.9166C27.706 22.2999 27.1203 21.8193 26.4351 21.5355C25.7498 21.2516 24.9958 21.1774 24.2684 21.3221C23.541 21.4667 22.8728 21.8239 22.3483 22.3483C21.8239 22.8728 21.4667 23.541 21.3221 24.2684C21.1774 24.9958 21.2516 25.7498 21.5355 26.4351C21.8193 27.1203 22.2999 27.706 22.9166 28.118C23.5333 28.5301 24.2583 28.75 25 28.75C25.9946 28.75 26.9484 28.3549 27.6517 27.6517C28.3549 26.9484 28.75 25.9946 28.75 25Z" fill="#0059FF"/>
</g>
<defs>
<clipPath id="clip0_277_6002">
<rect width="40" height="40" fill="white"/>
</clipPath>
</defs>
</svg>
