<svg width="32" height="32" viewBox="0 0 32 32" fill="none" xmlns="http://www.w3.org/2000/svg">
<g clip-path="url(#clip0_358_8851)">
<path d="M4 18.0002C5.61253 17.999 7.20853 18.3251 8.69125 18.959C8.78272 18.9969 8.86089 19.061 8.91585 19.1434C8.97082 19.2257 9.0001 19.3225 9 19.4215V24.0002C9 24.5307 8.78929 25.0394 8.41421 25.4145C8.03914 25.7895 7.53043 26.0002 7 26.0002H5C4.46957 26.0002 3.96086 25.7895 3.58579 25.4145C3.21071 25.0394 3 24.5307 3 24.0002V18.5002C3 18.3676 3.05268 18.2405 3.14645 18.1467C3.24021 18.0529 3.36739 18.0002 3.5 18.0002H4ZM28.875 19.524L22.5 18.089L8.7075 4.29274C8.61197 4.19725 8.49808 4.12211 8.37272 4.07184C8.24735 4.02157 8.11309 3.99722 7.97806 4.00025C7.84302 4.00329 7.71 4.03365 7.58701 4.08951C7.46403 4.14536 7.35364 4.22556 7.2625 4.32524C4.51375 7.33024 3 11.1252 3 15.0002C3 15.2655 3.10536 15.5198 3.29289 15.7074C3.48043 15.8949 3.73478 16.0002 4 16.0002C6.82823 15.9965 9.59031 16.8555 11.9175 18.4627C14.1875 20.0206 15.95 22.2108 16.9862 24.7615C17.136 25.1297 17.3926 25.4445 17.7231 25.6653C18.0535 25.8861 18.4426 26.0028 18.84 26.0002H30C30.5304 26.0002 31.0391 25.7895 31.4142 25.4145C31.7893 25.0394 32 24.5307 32 24.0002V23.409C32.0023 22.5016 31.6933 21.6209 31.1246 20.9138C30.5558 20.2068 29.7618 19.7162 28.875 19.524Z" fill="#56688E"/>
</g>
<defs>
<clipPath id="clip0_358_8851">
<rect width="32" height="32" fill="white"/>
</clipPath>
</defs>
</svg>
