<svg width="20" height="20" viewBox="0 0 20 20" fill="none" xmlns="http://www.w3.org/2000/svg">
<path d="M19.9555 9.14062L18.8617 6.40625C18.7689 6.17478 18.6086 5.97653 18.4018 5.83723C18.1949 5.69792 17.951 5.62399 17.7016 5.625H15V5C15 4.83424 14.9342 4.67527 14.8169 4.55806C14.6997 4.44085 14.5408 4.375 14.375 4.375H2.5C2.16848 4.375 1.85054 4.5067 1.61612 4.74112C1.3817 4.97554 1.25 5.29348 1.25 5.625V14.375C1.25 14.7065 1.3817 15.0245 1.61612 15.2589C1.85054 15.4933 2.16848 15.625 2.5 15.625H3.82812C3.96581 16.1628 4.27856 16.6394 4.71707 16.9798C5.15557 17.3202 5.69489 17.5049 6.25 17.5049C6.80511 17.5049 7.34443 17.3202 7.78293 16.9798C8.22144 16.6394 8.53419 16.1628 8.67188 15.625H12.5781C12.7158 16.1628 13.0286 16.6394 13.4671 16.9798C13.9056 17.3202 14.4449 17.5049 15 17.5049C15.5551 17.5049 16.0944 17.3202 16.5329 16.9798C16.9714 16.6394 17.2842 16.1628 17.4219 15.625H18.75C19.0815 15.625 19.3995 15.4933 19.6339 15.2589C19.8683 15.0245 20 14.7065 20 14.375V9.375C20.0001 9.29476 19.985 9.21524 19.9555 9.14062ZM6.25 16.25C6.00277 16.25 5.7611 16.1767 5.55554 16.0393C5.34998 15.902 5.18976 15.7068 5.09515 15.4784C5.00054 15.2499 4.97579 14.9986 5.02402 14.7561C5.07225 14.5137 5.1913 14.2909 5.36612 14.1161C5.54093 13.9413 5.76366 13.8222 6.00614 13.774C6.24861 13.7258 6.49995 13.7505 6.72835 13.8451C6.95676 13.9398 7.15199 14.1 7.28934 14.3055C7.42669 14.5111 7.5 14.7528 7.5 15C7.5 15.3315 7.3683 15.6495 7.13388 15.8839C6.89946 16.1183 6.58152 16.25 6.25 16.25ZM2.5 10.625V5.625H13.75V10.625H2.5ZM15 16.25C14.7528 16.25 14.5111 16.1767 14.3055 16.0393C14.1 15.902 13.9398 15.7068 13.8451 15.4784C13.7505 15.2499 13.7258 14.9986 13.774 14.7561C13.8222 14.5137 13.9413 14.2909 14.1161 14.1161C14.2909 13.9413 14.5137 13.8222 14.7561 13.774C14.9986 13.7258 15.2499 13.7505 15.4784 13.8451C15.7068 13.9398 15.902 14.1 16.0393 14.3055C16.1767 14.5111 16.25 14.7528 16.25 15C16.25 15.3315 16.1183 15.6495 15.8839 15.8839C15.6495 16.1183 15.3315 16.25 15 16.25ZM15 8.75V6.875H17.7016L18.4516 8.75H15Z" fill="#56688E"/>
</svg>
